<svg xmlns="http://www.w3.org/2000/svg"  viewBox="0 0 40 40" width="40px" height="40px"><path fill="#98ccfd" d="M10,37.5c-4.136,0-7.5-3.364-7.5-7.5V10c0-4.136,3.364-7.5,7.5-7.5h20c4.136,0,7.5,3.364,7.5,7.5v20 c0,4.136-3.364,7.5-7.5,7.5H10z"/><path fill="#b6dcfe" d="M37.552,13.975v11.042c-1.39,2.564-4.142,4.321-7.293,4.321c-3.714,0-6.855-2.42-7.905-5.761h-4.609 c-1.05,3.341-4.191,5.761-7.905,5.761c-3.15,0-5.902-1.757-7.293-4.321V13.975c0-1.92,0.963-5.761,2.917-5.761 c0.972,0,1.886,1.383,2.45,2.016c0.029-0.854-0.301-3.937,1.439-3.937c2.917,0,4.862,7.681,10.696,7.681s7.779-7.681,10.696-7.681 c1.741,0,1.41,3.082,1.439,3.937c0.564-0.634,1.478-2.016,2.45-2.016C36.589,8.214,37.552,12.054,37.552,13.975z"/><path fill="#fafafa" d="M10,26L10,26c-2.761,0-5-2.239-5-5v-3c0-2.761,2.239-5,5-5h0c2.761,0,5,2.239,5,5v3 C15,23.761,12.761,26,10,26z"/><path fill="#98ccfd" d="M12.931,18.441v2.917c0,1.342-1.089,2.431-2.431,2.431S8.069,22.7,8.069,21.359V18.84 c0.156,0.058,0.311,0.088,0.486,0.088c0.807,0,1.459-0.651,1.459-1.459c0-0.496-0.243-0.933-0.622-1.186 c0.331-0.175,0.71-0.272,1.109-0.272C11.842,16.011,12.931,17.1,12.931,18.441z"/><path fill="#fafafa" d="M30,26L30,26c-2.761,0-5-2.239-5-5v-3c0-2.761,2.239-5,5-5h0c2.761,0,5,2.239,5,5v3 C35,23.761,32.761,26,30,26z"/><path fill="#98ccfd" d="M31.931,18.441v2.917c0,1.342-1.089,2.431-2.431,2.431s-2.431-1.089-2.431-2.431V18.84 c0.156,0.058,0.311,0.088,0.486,0.088c0.807,0,1.459-0.651,1.459-1.459c0-0.496-0.243-0.933-0.622-1.186 c0.331-0.175,0.71-0.272,1.109-0.272C30.842,16.011,31.931,17.1,31.931,18.441z"/><path fill="#4788c7" d="M20,29c-1.654,0-3-1.346-3-3s1.346-3,3-3s3,1.346,3,3S21.654,29,20,29z M20,24c-1.103,0-2,0.897-2,2 s0.897,2,2,2s2-0.897,2-2S21.103,24,20,24z"/><path fill="#4788c7" d="M20.049,14.652c-3.658,0-5.853-2.765-7.616-4.986c-1.133-1.428-2.111-2.66-3.078-2.66 c-0.194,0-0.342,0.058-0.463,0.182C8.374,7.714,8.4,9.229,8.414,9.956c0.003,0.196,0.006,0.362,0.002,0.485 c-0.007,0.204-0.138,0.384-0.329,0.453c-0.191,0.071-0.407,0.017-0.544-0.137c-0.105-0.118-0.225-0.263-0.353-0.419 C6.727,9.772,6.025,8.917,5.466,8.917c-1.476,0-2.417,3.438-2.417,5.235h-1c0-2.106,1.032-6.235,3.417-6.235 c0.754,0,1.408,0.551,1.947,1.142C7.44,8.146,7.584,7.091,8.178,6.486c0.309-0.314,0.716-0.48,1.177-0.48 c1.45,0,2.567,1.408,3.861,3.038c1.715,2.16,3.658,4.608,6.833,4.608c3.176,0,5.119-2.448,6.834-4.608 c1.294-1.63,2.411-3.038,3.86-3.038c0.461,0,0.868,0.166,1.177,0.48c0.594,0.604,0.737,1.659,0.765,2.571 c0.539-0.591,1.193-1.141,1.947-1.141c2.385,0,3.417,4.129,3.417,6.235h-1c0-1.798-0.941-5.235-2.417-5.235 c-0.56,0-1.262,0.856-1.726,1.424c-0.128,0.155-0.245,0.299-0.351,0.417c-0.136,0.152-0.349,0.208-0.543,0.137 c-0.192-0.069-0.323-0.248-0.33-0.452c-0.004-0.124-0.001-0.291,0.002-0.488c0.013-0.728,0.039-2.241-0.479-2.768 c-0.121-0.123-0.269-0.181-0.463-0.181c-0.966,0-1.944,1.232-3.077,2.659C25.902,11.888,23.707,14.652,20.049,14.652z"/><path fill="#4788c7" d="M30.257,29.945c-3.739,0-7.013-2.289-8.262-5.734h-3.892c-1.25,3.445-4.524,5.734-8.263,5.734 c-3.235,0-6.197-1.748-7.731-4.562l0.879-0.479c1.357,2.492,3.983,4.04,6.853,4.04c3.425,0,6.41-2.164,7.428-5.385 c0.065-0.208,0.259-0.35,0.477-0.35h4.608c0.218,0,0.411,0.142,0.477,0.35c1.017,3.221,4.001,5.385,7.427,5.385 c2.869,0,5.495-1.548,6.853-4.04l0.879,0.479C36.454,28.197,33.492,29.945,30.257,29.945z"/><path fill="#b6dcfe" d="M20,21.5c-1.933,0-3.5,1.799-3.5,3.947L20,26.5l3.5-1.053C23.5,23.299,21.933,21.5,20,21.5z"/><path fill="#fafafa" d="M20.535,24.475h-0.972c-0.537,0-0.972-0.435-0.972-0.972v0c0-0.537,0.435-0.972,0.972-0.972h0.972 c0.537,0,0.972,0.435,0.972,0.972v0C21.507,24.04,21.072,24.475,20.535,24.475z"/><path fill="#4788c7" d="M20,27c-0.049,0-0.097-0.007-0.144-0.021l-3.5-1.053C16.145,25.862,16,25.668,16,25.447 C16,22.995,17.794,21,20,21s4,1.995,4,4.447c0,0.221-0.145,0.415-0.356,0.479l-3.5,1.053C20.097,26.993,20.049,27,20,27z M17.017,25.081L20,25.978l2.983-0.896C22.823,23.352,21.547,22,20,22S17.177,23.352,17.017,25.081z M23.5,25.447h0.01H23.5z"/><path fill="#4788c7" d="M30,3c3.86,0,7,3.14,7,7v20c0,3.86-3.14,7-7,7H10c-3.86,0-7-3.14-7-7V10c0-3.86,3.14-7,7-7H30 M30,2 H10c-4.418,0-8,3.582-8,8v20c0,4.418,3.582,8,8,8h20c4.418,0,8-3.582,8-8V10C38,5.582,34.418,2,30,2L30,2z"/></svg>